<?xml version="1.0" encoding="UTF-8"?>
<svg version="1.1" xmlns="http://www.w3.org/2000/svg" width="256" height="256">
<path d="M0 0 C31.68 0 63.36 0 96 0 C96 5.28 96 10.56 96 16 C106.56 16 117.12 16 128 16 C128 21.28 128 26.56 128 32 C133.28 32 138.56 32 144 32 C144 37.28 144 42.56 144 48 C149.28 48 154.56 48 160 48 C160 58.56 160 69.12 160 80 C165.28 80 170.56 80 176 80 C176 111.68 176 143.36 176 176 C170.72 176 165.44 176 160 176 C160 186.56 160 197.12 160 208 C154.72 208 149.44 208 144 208 C144 213.28 144 218.56 144 224 C138.72 224 133.44 224 128 224 C128 229.28 128 234.56 128 240 C117.44 240 106.88 240 96 240 C96 245.28 96 250.56 96 256 C64.32 256 32.64 256 0 256 C0 250.72 0 245.44 0 240 C-10.56 240 -21.12 240 -32 240 C-32 234.72 -32 229.44 -32 224 C-37.28 224 -42.56 224 -48 224 C-48 218.72 -48 213.44 -48 208 C-53.28 208 -58.56 208 -64 208 C-64 197.44 -64 186.88 -64 176 C-69.28 176 -74.56 176 -80 176 C-80 144.32 -80 112.64 -80 80 C-74.72 80 -69.44 80 -64 80 C-64 69.44 -64 58.88 -64 48 C-58.72 48 -53.44 48 -48 48 C-48 42.72 -48 37.44 -48 32 C-42.72 32 -37.44 32 -32 32 C-32 26.72 -32 21.44 -32 16 C-21.44 16 -10.88 16 0 16 C0 10.72 0 5.44 0 0 Z " fill="#FF9B28" transform="translate(80,0)"/>
<path d="M0 0 C31.68 0 63.36 0 96 0 C96 5.28 96 10.56 96 16 C106.56 16 117.12 16 128 16 C128 21.28 128 26.56 128 32 C80.48 32 32.96 32 -16 32 C-16 37.28 -16 42.56 -16 48 C-21.28 48 -26.56 48 -32 48 C-32 58.56 -32 69.12 -32 80 C-37.28 80 -42.56 80 -48 80 C-48 101.12 -48 122.24 -48 144 C-42.72 144 -37.44 144 -32 144 C-32 154.56 -32 165.12 -32 176 C-21.44 176 -10.88 176 0 176 C0 181.28 0 186.56 0 192 C5.28 192 10.56 192 16 192 C16 197.28 16 202.56 16 208 C26.56 208 37.12 208 48 208 C48 213.28 48 218.56 48 224 C74.4 224 100.8 224 128 224 C128 229.28 128 234.56 128 240 C117.44 240 106.88 240 96 240 C96 245.28 96 250.56 96 256 C64.32 256 32.64 256 0 256 C0 250.72 0 245.44 0 240 C-10.56 240 -21.12 240 -32 240 C-32 234.72 -32 229.44 -32 224 C-37.28 224 -42.56 224 -48 224 C-48 218.72 -48 213.44 -48 208 C-53.28 208 -58.56 208 -64 208 C-64 197.44 -64 186.88 -64 176 C-69.28 176 -74.56 176 -80 176 C-80 144.32 -80 112.64 -80 80 C-74.72 80 -69.44 80 -64 80 C-64 69.44 -64 58.88 -64 48 C-58.72 48 -53.44 48 -48 48 C-48 42.72 -48 37.44 -48 32 C-42.72 32 -37.44 32 -32 32 C-32 26.72 -32 21.44 -32 16 C-21.44 16 -10.88 16 0 16 C0 10.72 0 5.44 0 0 Z " fill="#FF7E14" transform="translate(80,0)"/>
<path d="M0 0 C5.28 0 10.56 0 16 0 C16 10.56 16 21.12 16 32 C26.56 32 37.12 32 48 32 C48 37.28 48 42.56 48 48 C53.28 48 58.56 48 64 48 C64 53.28 64 58.56 64 64 C74.56 64 85.12 64 96 64 C96 69.28 96 74.56 96 80 C122.4 80 148.8 80 176 80 C176 85.28 176 90.56 176 96 C165.44 96 154.88 96 144 96 C144 101.28 144 106.56 144 112 C112.32 112 80.64 112 48 112 C48 106.72 48 101.44 48 96 C37.44 96 26.88 96 16 96 C16 90.72 16 85.44 16 80 C10.72 80 5.44 80 0 80 C0 53.6 0 27.2 0 0 Z " fill="#FF7E14" transform="translate(32,144)"/>
<path d="M0 0 C15.84 0 31.68 0 48 0 C48 5.28 48 10.56 48 16 C53.28 16 58.56 16 64 16 C64 26.56 64 37.12 64 48 C69.28 48 74.56 48 80 48 C80 79.68 80 111.36 80 144 C74.72 144 69.44 144 64 144 C64 154.56 64 165.12 64 176 C58.72 176 53.44 176 48 176 C48 139.04 48 102.08 48 64 C37.44 64 26.88 64 16 64 C16 58.72 16 53.44 16 48 C21.28 48 26.56 48 32 48 C32 42.72 32 37.44 32 32 C26.72 32 21.44 32 16 32 C16 26.72 16 21.44 16 16 C10.72 16 5.44 16 0 16 C0 10.72 0 5.44 0 0 Z " fill="#FFA53E" transform="translate(176,32)"/>
<path d="M0 0 C31.68 0 63.36 0 96 0 C96 5.28 96 10.56 96 16 C106.56 16 117.12 16 128 16 C128 21.28 128 26.56 128 32 C85.76 32 43.52 32 0 32 C0 21.44 0 10.88 0 0 Z " fill="#FF7E14" transform="translate(80,0)"/>
<path d="M0 0 C5.28 0 10.56 0 16 0 C16 5.28 16 10.56 16 16 C21.28 16 26.56 16 32 16 C32 21.28 32 26.56 32 32 C37.28 32 42.56 32 48 32 C48 37.28 48 42.56 48 48 C42.72 48 37.44 48 32 48 C32 53.28 32 58.56 32 64 C26.72 64 21.44 64 16 64 C16 58.72 16 53.44 16 48 C10.72 48 5.44 48 0 48 C0 42.72 0 37.44 0 32 C-5.28 32 -10.56 32 -16 32 C-16 26.72 -16 21.44 -16 16 C-10.72 16 -5.44 16 0 16 C0 10.72 0 5.44 0 0 Z " fill="#FFAE5B" transform="translate(160,32)"/>
<path d="M0 0 C31.68 0 63.36 0 96 0 C96 5.28 96 10.56 96 16 C64.32 16 32.64 16 0 16 C0 10.72 0 5.44 0 0 Z " fill="#7F2400" transform="translate(80,240)"/>
<path d="M0 0 C5.28 0 10.56 0 16 0 C16 31.68 16 63.36 16 96 C10.72 96 5.44 96 0 96 C0 64.32 0 32.64 0 0 Z " fill="#AE3B03" transform="translate(240,80)"/>
<path d="M0 0 C5.28 0 10.56 0 16 0 C16 31.68 16 63.36 16 96 C10.72 96 5.44 96 0 96 C0 64.32 0 32.64 0 0 Z " fill="#7F2400" transform="translate(0,80)"/>
<path d="M0 0 C15.84 0 31.68 0 48 0 C48 5.28 48 10.56 48 16 C37.44 16 26.88 16 16 16 C16 21.28 16 26.56 16 32 C10.72 32 5.44 32 0 32 C0 37.28 0 42.56 0 48 C-5.28 48 -10.56 48 -16 48 C-16 37.44 -16 26.88 -16 16 C-10.72 16 -5.44 16 0 16 C0 10.72 0 5.44 0 0 Z " fill="#FF881E" transform="translate(64,32)"/>
<path d="M0 0 C10.56 0 21.12 0 32 0 C32 5.28 32 10.56 32 16 C37.28 16 42.56 16 48 16 C48 21.28 48 26.56 48 32 C37.44 32 26.88 32 16 32 C16 26.72 16 21.44 16 16 C10.72 16 5.44 16 0 16 C0 10.72 0 5.44 0 0 Z " fill="#7F2400" transform="translate(32,208)"/>
<path d="M0 0 C10.56 0 21.12 0 32 0 C32 5.28 32 10.56 32 16 C26.72 16 21.44 16 16 16 C16 21.28 16 26.56 16 32 C5.44 32 -5.12 32 -16 32 C-16 26.72 -16 21.44 -16 16 C-10.72 16 -5.44 16 0 16 C0 10.72 0 5.44 0 0 Z " fill="#F96D00" transform="translate(48,16)"/>
<path d="M0 0 C21.12 0 42.24 0 64 0 C64 5.28 64 10.56 64 16 C42.88 16 21.76 16 0 16 C0 10.72 0 5.44 0 0 Z " fill="#AE3B03" transform="translate(80,0)"/>
<path d="M0 0 C5.28 0 10.56 0 16 0 C16 2.64 16 5.28 16 8 C18.64 8 21.28 8 24 8 C24 10.64 24 13.28 24 16 C21.36 16 18.72 16 16 16 C16 18.64 16 21.28 16 24 C18.64 24 21.28 24 24 24 C24 26.64 24 29.28 24 32 C18.72 32 13.44 32 8 32 C8 29.36 8 26.72 8 24 C5.36 24 2.72 24 0 24 C0 26.64 0 29.28 0 32 C-5.28 32 -10.56 32 -16 32 C-16 29.36 -16 26.72 -16 24 C-13.36 24 -10.72 24 -8 24 C-8 18.72 -8 13.44 -8 8 C-5.36 8 -2.72 8 0 8 C0 5.36 0 2.72 0 0 Z " fill="#BB1407" transform="translate(128,120)"/>
<path d="M0 0 C10.56 0 21.12 0 32 0 C32 5.28 32 10.56 32 16 C21.44 16 10.88 16 0 16 C0 10.72 0 5.44 0 0 Z " fill="#AE3B03" transform="translate(144,240)"/>
<path d="M0 0 C10.56 0 21.12 0 32 0 C32 5.28 32 10.56 32 16 C21.44 16 10.88 16 0 16 C0 10.72 0 5.44 0 0 Z " fill="#D65214" transform="translate(176,224)"/>
<path d="M0 0 C10.56 0 21.12 0 32 0 C32 5.28 32 10.56 32 16 C21.44 16 10.88 16 0 16 C0 10.72 0 5.44 0 0 Z " fill="#FF531D" transform="translate(32,208)"/>
<path d="M0 0 C5.28 0 10.56 0 16 0 C16 10.56 16 21.12 16 32 C10.72 32 5.44 32 0 32 C0 21.44 0 10.88 0 0 Z " fill="#D65214" transform="translate(224,176)"/>
<path d="M0 0 C5.28 0 10.56 0 16 0 C16 10.56 16 21.12 16 32 C10.72 32 5.44 32 0 32 C0 21.44 0 10.88 0 0 Z " fill="#FFA53E" transform="translate(208,176)"/>
<path d="M0 0 C5.28 0 10.56 0 16 0 C16 10.56 16 21.12 16 32 C10.72 32 5.44 32 0 32 C0 21.44 0 10.88 0 0 Z " fill="#7F2400" transform="translate(16,176)"/>
<path d="M0 0 C5.28 0 10.56 0 16 0 C16 10.56 16 21.12 16 32 C10.72 32 5.44 32 0 32 C0 21.44 0 10.88 0 0 Z " fill="#D65214" transform="translate(240,80)"/>
<path d="M0 0 C5.28 0 10.56 0 16 0 C16 10.56 16 21.12 16 32 C10.72 32 5.44 32 0 32 C0 21.44 0 10.88 0 0 Z " fill="#D65214" transform="translate(224,48)"/>
<path d="M0 0 C5.28 0 10.56 0 16 0 C16 10.56 16 21.12 16 32 C10.72 32 5.44 32 0 32 C0 21.44 0 10.88 0 0 Z " fill="#7F2400" transform="translate(16,48)"/>
<path d="M0 0 C10.56 0 21.12 0 32 0 C32 5.28 32 10.56 32 16 C21.44 16 10.88 16 0 16 C0 10.72 0 5.44 0 0 Z " fill="#AE3B03" transform="translate(176,16)"/>
<path d="M0 0 C10.56 0 21.12 0 32 0 C32 5.28 32 10.56 32 16 C21.44 16 10.88 16 0 16 C0 10.72 0 5.44 0 0 Z " fill="#F96D00" transform="translate(80,16)"/>
<path d="M0 0 C10.56 0 21.12 0 32 0 C32 5.28 32 10.56 32 16 C21.44 16 10.88 16 0 16 C0 10.72 0 5.44 0 0 Z " fill="#7F2400" transform="translate(48,16)"/>
<path d="M0 0 C10.56 0 21.12 0 32 0 C32 5.28 32 10.56 32 16 C21.44 16 10.88 16 0 16 C0 10.72 0 5.44 0 0 Z " fill="#D65214" transform="translate(144,0)"/>
<path d="M0 0 C10.56 0 21.12 0 32 0 C32 5.28 32 10.56 32 16 C21.44 16 10.88 16 0 16 C0 10.72 0 5.44 0 0 Z " fill="#7F2400" transform="translate(80,0)"/>
<path d="M0 0 C5.28 0 10.56 0 16 0 C16 2.64 16 5.28 16 8 C13.36 8 10.72 8 8 8 C8 10.64 8 13.28 8 16 C10.64 16 13.28 16 16 16 C16 18.64 16 21.28 16 24 C10.72 24 5.44 24 0 24 C0 21.36 0 18.72 0 16 C-2.64 16 -5.28 16 -8 16 C-8 13.36 -8 10.72 -8 8 C-5.36 8 -2.72 8 0 8 C0 5.36 0 2.72 0 0 Z " fill="#970B02" transform="translate(136,128)"/>
<path d="M0 0 C5.28 0 10.56 0 16 0 C16 5.28 16 10.56 16 16 C10.72 16 5.44 16 0 16 C0 10.72 0 5.44 0 0 Z " fill="#7F2400" transform="translate(176,224)"/>
<path d="M0 0 C5.28 0 10.56 0 16 0 C16 5.28 16 10.56 16 16 C10.72 16 5.44 16 0 16 C0 10.72 0 5.44 0 0 Z " fill="#FF531D" transform="translate(80,224)"/>
<path d="M0 0 C5.28 0 10.56 0 16 0 C16 5.28 16 10.56 16 16 C10.72 16 5.44 16 0 16 C0 10.72 0 5.44 0 0 Z " fill="#7F2400" transform="translate(208,208)"/>
<path d="M0 0 C5.28 0 10.56 0 16 0 C16 5.28 16 10.56 16 16 C10.72 16 5.44 16 0 16 C0 10.72 0 5.44 0 0 Z " fill="#FFA53E" transform="translate(192,208)"/>
<path d="M0 0 C5.28 0 10.56 0 16 0 C16 5.28 16 10.56 16 16 C10.72 16 5.44 16 0 16 C0 10.72 0 5.44 0 0 Z " fill="#FF8C1E" transform="translate(176,208)"/>
<path d="M0 0 C5.28 0 10.56 0 16 0 C16 5.28 16 10.56 16 16 C10.72 16 5.44 16 0 16 C0 10.72 0 5.44 0 0 Z " fill="#FF8C1E" transform="translate(112,208)"/>
<path d="M0 0 C5.28 0 10.56 0 16 0 C16 5.28 16 10.56 16 16 C10.72 16 5.44 16 0 16 C0 10.72 0 5.44 0 0 Z " fill="#7F2400" transform="translate(32,208)"/>
<path d="M0 0 C5.28 0 10.56 0 16 0 C16 5.28 16 10.56 16 16 C10.72 16 5.44 16 0 16 C0 10.72 0 5.44 0 0 Z " fill="#FF8C1E" transform="translate(80,192)"/>
<path d="M0 0 C5.28 0 10.56 0 16 0 C16 5.28 16 10.56 16 16 C10.72 16 5.44 16 0 16 C0 10.72 0 5.44 0 0 Z " fill="#FF531D" transform="translate(32,192)"/>
<path d="M0 0 C5.28 0 10.56 0 16 0 C16 5.28 16 10.56 16 16 C10.72 16 5.44 16 0 16 C0 10.72 0 5.44 0 0 Z " fill="#7F2400" transform="translate(224,176)"/>
<path d="M0 0 C5.28 0 10.56 0 16 0 C16 5.28 16 10.56 16 16 C10.72 16 5.44 16 0 16 C0 10.72 0 5.44 0 0 Z " fill="#FF8C1E" transform="translate(64,176)"/>
<path d="M0 0 C5.28 0 10.56 0 16 0 C16 5.28 16 10.56 16 16 C10.72 16 5.44 16 0 16 C0 10.72 0 5.44 0 0 Z " fill="#D65214" transform="translate(240,160)"/>
<path d="M0 0 C5.28 0 10.56 0 16 0 C16 5.28 16 10.56 16 16 C10.72 16 5.44 16 0 16 C0 10.72 0 5.44 0 0 Z " fill="#FF531D" transform="translate(16,160)"/>
<path d="M0 0 C5.28 0 10.56 0 16 0 C16 5.28 16 10.56 16 16 C10.72 16 5.44 16 0 16 C0 10.72 0 5.44 0 0 Z " fill="#7F2400" transform="translate(240,144)"/>
<path d="M0 0 C5.28 0 10.56 0 16 0 C16 5.28 16 10.56 16 16 C10.72 16 5.44 16 0 16 C0 10.72 0 5.44 0 0 Z " fill="#FF8C1E" transform="translate(32,144)"/>
<path d="M0 0 C5.28 0 10.56 0 16 0 C16 5.28 16 10.56 16 16 C10.72 16 5.44 16 0 16 C0 10.72 0 5.44 0 0 Z " fill="#FFA53E" transform="translate(176,96)"/>
<path d="M0 0 C5.28 0 10.56 0 16 0 C16 5.28 16 10.56 16 16 C10.72 16 5.44 16 0 16 C0 10.72 0 5.44 0 0 Z " fill="#FFA53E" transform="translate(160,80)"/>
<path d="M0 0 C5.28 0 10.56 0 16 0 C16 5.28 16 10.56 16 16 C10.72 16 5.44 16 0 16 C0 10.72 0 5.44 0 0 Z " fill="#FF8C1E" transform="translate(32,80)"/>
<path d="M0 0 C5.28 0 10.56 0 16 0 C16 5.28 16 10.56 16 16 C10.72 16 5.44 16 0 16 C0 10.72 0 5.44 0 0 Z " fill="#FF531D" transform="translate(16,80)"/>
<path d="M0 0 C5.28 0 10.56 0 16 0 C16 5.28 16 10.56 16 16 C10.72 16 5.44 16 0 16 C0 10.72 0 5.44 0 0 Z " fill="#AE3B03" transform="translate(0,80)"/>
<path d="M0 0 C5.28 0 10.56 0 16 0 C16 5.28 16 10.56 16 16 C10.72 16 5.44 16 0 16 C0 10.72 0 5.44 0 0 Z " fill="#FFA53E" transform="translate(144,64)"/>
<path d="M0 0 C5.28 0 10.56 0 16 0 C16 5.28 16 10.56 16 16 C10.72 16 5.44 16 0 16 C0 10.72 0 5.44 0 0 Z " fill="#AE3B03" transform="translate(224,48)"/>
<path d="M0 0 C5.28 0 10.56 0 16 0 C16 5.28 16 10.56 16 16 C10.72 16 5.44 16 0 16 C0 10.72 0 5.44 0 0 Z " fill="#FFA53E" transform="translate(128,48)"/>
<path d="M0 0 C5.28 0 10.56 0 16 0 C16 5.28 16 10.56 16 16 C10.72 16 5.44 16 0 16 C0 10.72 0 5.44 0 0 Z " fill="#FF531D" transform="translate(32,48)"/>
<path d="M0 0 C5.28 0 10.56 0 16 0 C16 5.28 16 10.56 16 16 C10.72 16 5.44 16 0 16 C0 10.72 0 5.44 0 0 Z " fill="#AE3B03" transform="translate(16,48)"/>
<path d="M0 0 C5.28 0 10.56 0 16 0 C16 5.28 16 10.56 16 16 C10.72 16 5.44 16 0 16 C0 10.72 0 5.44 0 0 Z " fill="#AE3B03" transform="translate(208,32)"/>
<path d="M0 0 C5.28 0 10.56 0 16 0 C16 5.28 16 10.56 16 16 C10.72 16 5.44 16 0 16 C0 10.72 0 5.44 0 0 Z " fill="#FFA53E" transform="translate(144,32)"/>
<path d="M0 0 C5.28 0 10.56 0 16 0 C16 5.28 16 10.56 16 16 C10.72 16 5.44 16 0 16 C0 10.72 0 5.44 0 0 Z " fill="#FF7E14" transform="translate(64,32)"/>
<path d="M0 0 C5.28 0 10.56 0 16 0 C16 5.28 16 10.56 16 16 C10.72 16 5.44 16 0 16 C0 10.72 0 5.44 0 0 Z " fill="#AE3B03" transform="translate(32,32)"/>
<path d="M0 0 C5.28 0 10.56 0 16 0 C16 5.28 16 10.56 16 16 C10.72 16 5.44 16 0 16 C0 10.72 0 5.44 0 0 Z " fill="#D65214" transform="translate(176,16)"/>
<path d="M0 0 C5.28 0 10.56 0 16 0 C16 5.28 16 10.56 16 16 C10.72 16 5.44 16 0 16 C0 10.72 0 5.44 0 0 Z " fill="#AE3B03" transform="translate(48,16)"/>
<path d="M0 0 C5.28 0 10.56 0 16 0 C16 2.64 16 5.28 16 8 C10.72 8 5.44 8 0 8 C0 5.36 0 2.72 0 0 Z " fill="#A31005" transform="translate(112,144)"/>
<path d="M0 0 C2.64 0 5.28 0 8 0 C8 2.64 8 5.28 8 8 C5.36 8 2.72 8 0 8 C0 5.36 0 2.72 0 0 Z " fill="#BB1407" transform="translate(112,144)"/>
<path d="M0 0 C2.64 0 5.28 0 8 0 C8 2.64 8 5.28 8 8 C5.36 8 2.72 8 0 8 C0 5.36 0 2.72 0 0 Z " fill="#A31005" transform="translate(128,136)"/>
<path d="M0 0 C2.64 0 5.28 0 8 0 C8 2.64 8 5.28 8 8 C5.36 8 2.72 8 0 8 C0 5.36 0 2.72 0 0 Z " fill="#A31005" transform="translate(136,128)"/>
<path d="M0 0 C2.64 0 5.28 0 8 0 C8 2.64 8 5.28 8 8 C5.36 8 2.72 8 0 8 C0 5.36 0 2.72 0 0 Z " fill="#D51607" transform="translate(120,128)"/>
<path d="M0 0 C2.64 0 5.28 0 8 0 C8 2.64 8 5.28 8 8 C5.36 8 2.72 8 0 8 C0 5.36 0 2.72 0 0 Z " fill="#FF3728" transform="translate(112,128)"/>
<path d="M0 0 C2.64 0 5.28 0 8 0 C8 2.64 8 5.28 8 8 C5.36 8 2.72 8 0 8 C0 5.36 0 2.72 0 0 Z " fill="#D51607" transform="translate(128,120)"/>
<path d="M0 0 C2.64 0 5.28 0 8 0 C8 2.64 8 5.28 8 8 C5.36 8 2.72 8 0 8 C0 5.36 0 2.72 0 0 Z " fill="#FF3728" transform="translate(120,120)"/>
<path d="M0 0 C2.64 0 5.28 0 8 0 C8 2.64 8 5.28 8 8 C5.36 8 2.72 8 0 8 C0 5.36 0 2.72 0 0 Z " fill="#FF3728" transform="translate(128,112)"/>
</svg>
